<?xml version="1.0" encoding="UTF-8"?><svg id="Layer_1" xmlns="http://www.w3.org/2000/svg" width="11.586in" height="10.371in" viewBox="0 0 834.172 746.743"><path d="M833.504,207.594h.003c-6.174-110.15-75.422-192.741-179.62-206.08-96.702-12.462-193.957,53.255-224.607,151.613-4.081,13.23-1.762,28.666-17.974,43.884-4.74-9.152-7.609-15.549-11.137-21.501-48.406-83.912-135.183-127.356-223.726-112.138C90.988,78.145,7.52,152.464,1.232,241.998c-9.262,130.774,33.191,245.999,144.004,327.043,104.201,76.194,219.314,131.215,340.495,174.44,18.527,6.615,27.567,3.087,40.469-9.815,76.744-77.075,151.282-156.135,216.449-243.243,62.629-83.359,96.811-175.98,90.855-282.828ZM724.126,431.211c-49.068,108.17-122.834,199.8-198.806,289.883-14.115,16.761-27.017,18.855-45.981,9.593-115.666-56.786-225.488-122.172-315.353-216.117-64.173-67.042-103.43-144.776-93.505-240.815,6.946-66.488,34.404-119.747,101.773-143.454,65.498-23.045,122.725-5.406,172.674,39.366,45.209,40.465,66.27,95.267,85.565,151.5,3.968-63.292,18.196-121.509,51.937-173.886,41.787-64.945,112.91-95.93,178.405-78.947,57.227,14.774,99.239,71.01,107.289,145.439,8.268,76.963-12.68,148.744-43.997,217.439Z" fill="#010101"/></svg>